P3
5 3
255
57
50
10
54
50
10
49
49
48
10
57
53
10
54
54
10
49
48
52
10
57
49
10
53
57
10
49
48
52
10
57
49
10
53
57
10
49
48
52
10
57
51
10
54
51
