P3
7 6
255
87
87
87
255
255
255
138
240
255
138
240
255
255
255
255
255
255
255
87
87
87
240
255
255
87
87
255
255
138
189
87
87
138
240
255
199
240
255
255
255
138
255
185
232
255
185
232
255
255
138
255
255
138
138
240
255
138
240
255
240
87
240
255
255
138
255
255
138
255
255
138
240
87
240
138
240
255
138
240
255
138
255
255
255
255
255
215
255
87
215
255
87
87
255
189
255
255
255
138
240
255
138
240
255
138
240
255
138
240
255
138
87
87
87
255
255
255
255
255
255
255
255
255
255
255
255
