P3
7 6
255
52
52
52
37
37
37
37
37
37
37
37
37
38
38
38
37
37
37
51
51
51
37
37
37
37
37
37
38
38
38
52
52
52
37
37
37
37
37
37
38
38
38
52
52
52
37
37
37
37
37
37
22
22
22
35
35
35
38
38
38
52
52
52
37
37
37
37
37
37
22
22
22
52
52
52
37
37
37
38
38
38
36
36
36
36
36
36
35
35
35
37
37
37
37
37
37
37
37
37
38
38
38
49
49
49
37
37
37
37
37
37
38
38
38
52
52
52
37
37
37
38
38
38
36
36
36
