P3
7 6
255
0
0
0
255
255
255
255
255
255
51
153
255
51
153
255
255
255
255
0
0
0
255
51
255
153
255
255
153
255
112
0
0
51
255
51
102
0
0
255
153
255
255
0
153
255
153
255
153
153
255
51
255
51
51
255
51
255
98
145
255
98
145
255
255
255
255
153
255
51
153
255
51
0
153
51
255
51
153
255
51
255
255
51
255
153
255
51
153
255
51
255
255
51
204
102
255
255
0
0
255
0
128
255
255
128
255
255
255
255
255
255
255
255
255
255
255
255
0
0
0
153
255
51
153
255
51
