P3
7 6
255
0
0
0
156
156
156
0
54
156
0
54
156
156
156
156
156
156
156
0
0
0
54
156
156
0
0
156
156
0
3
0
0
0
54
156
13
54
156
156
156
0
156
0
46
156
0
46
156
156
0
156
156
0
0
54
156
0
54
156
54
0
54
156
156
0
156
156
0
156
156
0
54
0
54
0
54
156
0
54
156
0
156
156
156
156
156
29
156
0
29
156
0
0
105
3
156
156
156
0
54
156
0
54
156
0
54
156
0
54
156
0
0
0
0
156
156
156
156
156
156
156
156
156
156
156
156
