P3
7 6
255
0
0
0
255
255
255
153
153
153
153
153
153
255
255
255
255
255
255
0
0
0
221
221
221
85
85
85
136
136
136
17
17
17
173
173
173
221
221
221
187
187
187
166
166
166
166
166
166
187
187
187
119
119
119
153
153
153
187
187
187
136
136
136
187
187
187
187
187
187
153
153
153
68
68
68
153
153
153
153
153
153
255
255
255
212
212
212
127
127
127
85
85
85
187
187
187
187
187
187
153
153
153
153
153
153
153
153
153
153
153
153
0
0
0
255
255
255
255
255
255
255
255
255
255
255
255
